<?xml version="1.0" encoding="utf-8"?>
<!-- Generator: Adobe Illustrator 16.0.0, SVG Export Plug-In . SVG Version: 6.00 Build 0)  -->
<!DOCTYPE svg PUBLIC "-//W3C//DTD SVG 1.1//EN" "http://www.w3.org/Graphics/SVG/1.1/DTD/svg11.dtd" [
	<!ENTITY st0 "fill:#50BD37;">
]>
<svg version="1.1" id="SOGo" xmlns="http://www.w3.org/2000/svg" xmlns:xlink="http://www.w3.org/1999/xlink" x="0px" y="0px"
	 width="140.263px" height="140.269px" viewBox="499.737 0 140.263 140.269"
	 style="enable-background:new 499.737 0 140.263 140.269;" xml:space="preserve">
<path style="&st0;" d="M569.697,87.024c-9.928,0-16.975-7.264-16.975-17.017c0-9.757,7.047-17.022,16.975-17.022
	c10.006,0,17.054,7.265,17.054,17.022C586.751,79.76,579.703,87.024,569.697,87.024z M569.667,36.335
	c-19.657,0-33.614,14.372-33.614,33.673c0,19.294,13.955,33.667,33.614,33.667c19.787,0,33.745-14.372,33.745-33.667
	C603.411,50.707,589.454,36.335,569.667,36.335z M569.639,121.123c-29.833,0-51.025-21.825-51.025-51.115
	c0-29.296,21.192-51.111,51.025-51.111c30.025,0,51.213,21.815,51.213,51.111C620.852,99.298,599.664,121.123,569.639,121.123z
	 M569.602,0c-40.854,0-69.864,29.889-69.864,70.007c0,40.112,29.01,69.993,69.864,69.993c41.116,0,70.136-29.88,70.136-69.993
	C639.737,29.889,610.719,0,569.602,0z"/>
</svg>
