<svg xmlns="http://www.w3.org/2000/svg" viewBox="0 0 128 128" role="img" aria-label="mailcow icon">
  <defs>
    <linearGradient id="bg" x1="20" x2="108" y1="12" y2="116" gradientUnits="userSpaceOnUse">
      <stop offset="0" stop-color="#143a36"/>
      <stop offset="1" stop-color="#0d2322"/>
    </linearGradient>
    <linearGradient id="card" x1="35" x2="93" y1="36" y2="90" gradientUnits="userSpaceOnUse">
      <stop offset="0" stop-color="#fff4df"/>
      <stop offset="1" stop-color="#f2dfb8"/>
    </linearGradient>
  </defs>
  <rect x="14" y="14" width="100" height="100" rx="28" fill="url(#bg)"/>
  <path d="M39 32 31 48l14-5z" fill="#b88457"/>
  <path d="m89 32 8 16-14-5z" fill="#b88457"/>
  <path d="M52 26c3 4 4 9 4 13H44c0-6 3-11 8-13z" fill="#f3e4bf"/>
  <path d="M76 26c-3 4-4 9-4 13h12c0-6-3-11-8-13z" fill="#f3e4bf"/>
  <rect x="34" y="38" width="60" height="52" rx="18" fill="url(#card)"/>
  <path d="M34 56c6 7 14 11 30 11s24-4 30-11v20c0 8-8 14-18 14H52c-10 0-18-6-18-14Z" fill="#f7e9c9"/>
  <path d="m43 49 21 16 21-16" fill="none" stroke="#173834" stroke-linecap="round" stroke-linejoin="round" stroke-width="5"/>
  <rect x="45" y="49" width="38" height="28" rx="8" fill="none" stroke="#173834" stroke-width="5"/>
  <circle cx="49" cy="80" r="5.5" fill="#5a3d2c"/>
  <circle cx="79" cy="80" r="5.5" fill="#5a3d2c"/>
  <path d="M58 87c2.2 2.1 4.3 3.1 6 3.1 1.7 0 3.8-1 6-3.1" fill="none" stroke="#5a3d2c" stroke-linecap="round" stroke-width="4"/>
  <path d="M36 47c6-8 16-12 28-12s22 4 28 12" fill="none" stroke="#f7b548" stroke-linecap="round" stroke-width="4"/>
  <ellipse cx="52" cy="55" rx="6" ry="4.5" fill="#204d46" opacity=".18"/>
  <ellipse cx="82" cy="63" rx="5" ry="3.8" fill="#204d46" opacity=".14"/>
</svg>
