<?xml version="1.0" encoding="UTF-8" standalone="no"?>
<!-- Generator: Adobe Illustrator 17.0.0, SVG Export Plug-In . SVG Version: 6.00 Build 0)  -->

<svg
   xmlns:dc="http://purl.org/dc/elements/1.1/"
   xmlns:cc="http://creativecommons.org/ns#"
   xmlns:rdf="http://www.w3.org/1999/02/22-rdf-syntax-ns#"
   xmlns:svg="http://www.w3.org/2000/svg"
   xmlns="http://www.w3.org/2000/svg"
   xmlns:sodipodi="http://sodipodi.sourceforge.net/DTD/sodipodi-0.dtd"
   xmlns:inkscape="http://www.inkscape.org/namespaces/inkscape"
   version="1.1"
   id="Layer_1"
   x="0px"
   y="0px"
   width="392.82242"
   height="201.049"
   viewBox="0 0 392.82241 201.049"
   enable-background="new 0 0 1600 1200"
   xml:space="preserve"
   inkscape:version="0.91 r13725"
   sodipodi:docname="sogo-full.svg"><metadata
     id="metadata144"><rdf:RDF><cc:Work
         rdf:about=""><dc:format>image/svg+xml</dc:format><dc:type
           rdf:resource="http://purl.org/dc/dcmitype/StillImage" /><dc:title></dc:title></cc:Work></rdf:RDF></metadata><defs
     id="defs142" /><sodipodi:namedview
     pagecolor="#ffffff"
     bordercolor="#666666"
     borderopacity="1"
     objecttolerance="10"
     gridtolerance="10"
     guidetolerance="10"
     inkscape:pageopacity="0"
     inkscape:pageshadow="2"
     inkscape:window-width="1097"
     inkscape:window-height="1138"
     id="namedview140"
     showgrid="false"
     inkscape:zoom="1.1125147"
     inkscape:cx="206.04418"
     inkscape:cy="194.82483"
     inkscape:window-x="814"
     inkscape:window-y="0"
     inkscape:window-maximized="0"
     inkscape:current-layer="Layer_1"
     fit-margin-top="0"
     fit-margin-left="0"
     fit-margin-right="0"
     fit-margin-bottom="0"
     borderlayer="true" /><g
     id="g3"
     transform="translate(-630.29057,-557.81)"
     style="opacity:0.108"><g
       id="g5"
       style=""><g
         id="g7"
         style=""><g
           id="email"
           style=""><path
             d="m 890.306,557.81 29.26,11.373 0,172.027 c 0,9.753 -7.895,17.649 -17.638,17.649 l -235.998,0 c -9.743,0 -17.638,-7.896 -17.638,-17.649 l 0,-172.026 29.259,-8.937"
             id="path10"
             inkscape:connector-curvature="0"
             style="fill:#4d4d4d" /><path
             d="M 758.871,656.221 649.49,747.45 c 2.507,6.648 8.901,11.409 16.44,11.409 l 235.998,0 c 7.536,0 13.933,-4.761 16.444,-11.409 l -107.402,-91.229 -52.099,0 z"
             id="path12"
             inkscape:connector-curvature="0"
             style="fill:#999999;fill-opacity:0.89499996" /><g
             id="g14"
             style=""><path
               d="m 810.391,656.686 107.981,90.764 c -0.331,0.881 -0.744,1.726 -1.205,2.536 l 0.028,0.035 c 1.501,-2.596 2.371,-5.594 2.371,-8.81 l 0,-172.004 -109.175,87.479 z"
               id="path16"
               inkscape:connector-curvature="0"
               style="fill:#b3b3b3;fill-opacity:1" /><path
               d="m 649.49,747.45 108.864,-90.764 -110.061,-87.479 0,172.003 c 0,3.216 0.876,6.214 2.367,8.81 l 0.039,-0.035 c -0.466,-0.809 -0.877,-1.654 -1.209,-2.535 z"
               id="path18"
               inkscape:connector-curvature="0"
               style="fill:#b3b3b3;fill-opacity:1" /></g></g><path
           d="m 961.81,681.214 c 0,0 -15.232,16.783 -42.244,14.73 l 0,28.14 c 13.328,-5.185 47.061,-20.036 56.854,-40.809 l -14.61,-2.061 z"
           id="path20"
           inkscape:connector-curvature="0"
           style="fill:#666666" /><path
           d="m 984.594,658.413 c 3.59,-9.156 7.701,-11 9.346,-11.346 -49.276,4.542 -32.99,38.693 -32.99,38.693 0,0 6.229,14.728 26.532,13.892 27.063,0.461 35.631,-50.166 35.631,-50.166 -6.654,11.655 -26.404,9.876 -38.519,8.927 z"
           id="path22"
           inkscape:connector-curvature="0"
           style="fill:#666666" /><path
           d="m 663.708,566.47 c -57.88068,154.362 -28.94034,77.181 0,0 z"
           id="path26"
           inkscape:connector-curvature="0"
           style="opacity:0.1;fill:#3d5263"
           sodipodi:nodetypes="cc" /><g
           id="g28"
           style=""><g
             id="g30"
             style=""><g
               id="g34"
               style=""><g
                 id="g36"
                 style=""><g
                   id="g40"
                   style="" /></g><g
                 id="g52"
                 style=""><g
                   id="g54"
                   style="" /></g><g
                 id="g58"
                 style=""><g
                   id="g60"
                   style=""><g
                     id="g62"
                     style="" /></g><g
                   id="g66"
                   style=""><g
                     id="g68"
                     style="" /></g></g><g
                 id="g72"
                 style=""><path
                   d="m 867.815,563.83 c -193.95201,156.122 -96.97601,78.061 0,0 z"
                   id="path74"
                   inkscape:connector-curvature="0"
                   style="fill:#87654a"
                   sodipodi:nodetypes="cc" /></g><g
                 id="g76"
                 style=""><g
                   id="g78"
                   style=""><g
                     id="g80"
                     style=""><g
                       id="g82"
                       style="" /></g></g><g
                   id="g86"
                   style=""><g
                     id="g88"
                     style=""><g
                       id="g90"
                       style="" /></g></g><g
                   id="g94"
                   style=""><g
                     id="g96"
                     style="" /></g><g
                   id="g100"
                   style=""><g
                     id="g102"
                     style="" /></g></g></g><path
               d="m 786.264,672.409 c -139.58468,83.736 -69.79234,41.868 0,0 z"
               id="path110"
               inkscape:connector-curvature="0"
               style="fill:#f1f2f2"
               sodipodi:nodetypes="cc" /></g><g
             id="g112"
             style="" /></g><path
           d="m 919.566,695.944 c 0,0 7.562,0.712 13.317,-0.502 l 13.013,16.12 c 0,0 -17.639,9.525 -26.33,12.523 l 0,-28.141 z"
           id="path116"
           inkscape:connector-curvature="0"
           style="opacity:0.1;fill:#3d5263" /></g><path
         d="m 648.292,659.614 0,81.645 c 0,9.72 7.88,17.6 17.6,17.6 l 236.073,0 c 9.72,0 17.6,-7.88 17.6,-17.6 l 0,-24.902 c 10e-4,0 -175.814,35.524 -271.273,-56.743 z"
         id="path124"
         inkscape:connector-curvature="0"
         style="opacity:0.1;fill:#666666" /></g><g
       id="g126"
       style="" /></g></svg>