<?xml version="1.0" encoding="UTF-8" standalone="no"?>
<!-- Generator: Adobe Illustrator 16.0.0, SVG Export Plug-In . SVG Version: 6.00 Build 0)  -->

<svg
   xmlns:dc="http://purl.org/dc/elements/1.1/"
   xmlns:cc="http://creativecommons.org/ns#"
   xmlns:rdf="http://www.w3.org/1999/02/22-rdf-syntax-ns#"
   xmlns:svg="http://www.w3.org/2000/svg"
   xmlns="http://www.w3.org/2000/svg"
   xmlns:sodipodi="http://sodipodi.sourceforge.net/DTD/sodipodi-0.dtd"
   xmlns:inkscape="http://www.inkscape.org/namespaces/inkscape"
   version="1.1"
   id="Layer_1"
   x="0px"
   y="0px"
   width="640px"
   height="350px"
   viewBox="78.712 58.488 640 350"
   style="enable-background:new 78.712 58.488 640 350;"
   xml:space="preserve"
   inkscape:version="0.91 r13725"
   sodipodi:docname="sogo-full.svg"><metadata
     id="metadata9"><rdf:RDF><cc:Work
         rdf:about=""><dc:format>image/svg+xml</dc:format><dc:type
           rdf:resource="http://purl.org/dc/dcmitype/StillImage" /></cc:Work></rdf:RDF></metadata><defs
     id="defs7" /><sodipodi:namedview
     pagecolor="#ffffff"
     bordercolor="#666666"
     borderopacity="1"
     objecttolerance="10"
     gridtolerance="10"
     guidetolerance="10"
     inkscape:pageopacity="0"
     inkscape:pageshadow="2"
     inkscape:window-width="1721"
     inkscape:window-height="1177"
     id="namedview5"
     showgrid="false"
     inkscape:zoom="0.8396893"
     inkscape:cx="360.23913"
     inkscape:cy="334.02085"
     inkscape:window-x="-8"
     inkscape:window-y="-8"
     inkscape:window-maximized="1"
     inkscape:current-layer="Layer_1" /><path
     style="fill:#1976d2;fill-opacity:0.71428573"
     d="M648.541,145.679c-9.947,0-17.009-7.278-17.009-17.048c0-9.777,7.062-17.057,17.009-17.057  c10.024,0,17.086,7.279,17.086,17.057C665.627,138.401,658.565,145.679,648.541,145.679z M648.511,94.893  c-19.693,0-33.679,14.4-33.679,33.738c0,19.33,13.985,33.729,33.679,33.729c19.822,0,33.808-14.4,33.808-33.729  C682.318,109.293,668.333,94.893,648.511,94.893z M648.482,179.843c-29.889,0-51.123-21.868-51.123-51.212  c0-29.353,21.234-51.209,51.123-51.209c30.082,0,51.307,21.856,51.307,51.209C699.789,157.975,678.564,179.843,648.482,179.843z   M648.442,58.488c-40.929,0-69.995,29.946-69.995,70.143c0,40.189,29.066,70.125,69.995,70.125c41.194,0,70.27-29.937,70.27-70.125  C718.712,88.434,689.637,58.488,648.442,58.488z M158.166,183.902l-21.018-5.008c-19.131-4.396-28.849-9.413-28.849-23.21  c0-15.684,15.99-21.965,30.419-21.965c14.667,0,25.382,7.329,31.693,18.737c0.02,0.048,0.051,0.097,0.09,0.157  c0.127,0.247,0.276,0.484,0.403,0.731l0.03-0.02c1.985,3.002,5.323,5.008,8.919,5.008c6.122,0,10.558-4.425,10.558-10.547  c0-2.341-0.504-4.82-1.601-6.688c-10.764-18.302-28.513-26.192-48.838-26.192c-27.594,0-54.262,13.797-54.262,44.218  c0,27.921,27.605,36.079,37.64,38.578l20.069,4.71c15.368,3.763,27.912,8.791,27.912,23.517c0,16.938-17.561,23.943-34.499,23.943  c-17.245,0-30.015-9.37-38.814-22.37h-0.01c-1.956-3-4.988-4.328-8.702-4.328c-5.984,0-10.805,5.185-10.587,11.162  c0.098,2.438,0.909,4.637,2.153,6.405c13.787,20.633,33.728,28.41,55.96,28.41c28.543,0,57.085-13.143,57.085-45.132  C193.918,203.325,178.551,188.613,158.166,183.902z M298.479,250.312c-33.866,0-55.199-25.403-55.199-58.331  c0-32.939,21.333-58.343,55.199-58.343c34.192,0,55.516,25.403,55.516,58.343C353.996,224.91,332.672,250.312,298.479,250.312z   M298.479,114.823c-45.471,0-77.777,32.93-77.777,77.158c0,44.217,32.306,77.146,77.777,77.146  c45.786,0,78.093-32.929,78.093-77.146C376.572,147.753,344.266,114.823,298.479,114.823z M518.715,234.312  c-0.771,0.74-1.549,1.472-2.399,2.175c-1.106,1.014-2.391,2.112-3.854,3.208c-8.829,6.391-19.979,10.094-33.017,10.094  c-33.876,0-55.198-25.402-55.198-58.332c0-32.939,21.322-58.342,55.198-58.342c34.183,0,55.506,25.403,55.506,58.342  C534.951,208.653,529.135,223.774,518.715,234.312z M468.097,317.938c2.528,0,5.146-0.168,7.863-0.504  c5.018-0.631,9.588-0.909,13.729-0.909c19.24,0.109,29.036,5.7,34.943,12.158c5.895,6.499,8.168,15.311,8.158,22.796  c0.01,3.586-0.555,6.795-1.177,8.721c-2.944,8.93-8.888,15.002-17.996,19.576c-9.035,4.484-21.095,6.777-33.707,6.757  c-4.514,0-9.105-0.288-13.639-0.831c-8.573-0.987-19.911-4.671-28.13-11.093c-4.138-3.199-6.458-6.991-8.858-11.485  c-2.379-4.514-2.783-9.748-2.783-16.442v-0.742c0-12.346,4.84-20.544,11.051-26.5c3.07-2.904,5.69-5.064,7.99-6.438  c0.366-0.218,0.438-0.416,0.755-0.593C452.39,316.014,459.684,317.968,468.097,317.938z M479.445,114.301  c-45.471,0-77.786,32.929-77.786,77.157c0,29.887,14.765,54.598,38.378,67.489c-0.314,0.314-0.621,0.641-0.916,0.966  c-6.104,6.687-9.226,15.25-9.236,23.913c-0.008,3.821,0.624,7.741,1.977,11.494c-3.062,1.956-6.717,4.634-10.46,8.147  c-9.026,8.408-18.734,22.541-19.021,42.097c-0.01,0.454-0.01,0.829-0.01,1.118c-0.01,10.071,2.379,19.157,6.459,26.774  c6.133,11.466,15.683,19.445,25.539,24.77c9.917,5.334,20.257,8.166,29.273,9.274c5.373,0.643,10.826,0.988,16.268,0.988  c15.151-0.02,30.261-2.578,43.409-9.019c13.085-6.34,24.333-17.253,29.192-32.562c1.443-4.553,2.212-9.719,2.231-15.428  c-0.02-11.595-3.349-25.759-13.767-37.452c-10.421-11.734-27.654-19.566-51.288-19.459c-5.138,0-10.606,0.356-16.426,1.078  c-1.877,0.227-3.596,0.334-5.166,0.334c-7.239-0.048-10.872-2.053-13.036-4.098c-2.133-2.084-3.2-4.839-3.229-8.058  c-0.01-3.28,1.284-6.727,3.467-9.078c2.231-2.332,5.008-3.91,9.846-3.97c0.436,0,0.9,0.01,1.374,0.05  c3.101,0.216,6.112,0.325,9.037,0.325c24.188,0.047,42.38-7.448,54.756-17.759c12.415-10.312,18.971-22.854,22.071-32.76l-0.04-0.01  c3.37-8.899,5.197-18.715,5.197-29.166C557.539,147.229,525.234,114.301,479.445,114.301z"
     id="path3" /><g
     id="g3"
     transform="matrix(0.69327133,0,0,0.69327133,-230.59227,-153.05511)"><g
       id="g5"><g
         id="g7"><path
           d="m 748.616,546.705 c -6.272,4.929 9.576,36.937 20.52,33.516 10.944,-3.42 -10.945,-41.04 -20.52,-33.516 z"
           id="path19"
           inkscape:connector-curvature="0"
           style="fill:#acef29" /></g></g><g
       id="g37"><g
         id="g39"><g
           id="g41" /></g><g
         id="g45"><g
           id="g47"><g
             id="g49" /></g></g></g><g
       id="g57"><g
         id="g59"><g
           id="g61" /></g><g
         id="g65"><g
           id="g67"><g
             id="g69" /></g></g></g><g
       id="g73"
       style="opacity:0.38999999"><g
         id="g75" /></g><g
       id="g81" /><g
       id="g85" /><g
       id="g99"><polyline
         points="690.928,453.92 678.401,490.532 689.894,539.76 710.135,559.116   "
         id="polyline101"
         style="fill:#3d5263" /><g
         id="g103"><g
           id="g105"><polyline
             points="665.082,423.023 677.433,450.19 693.064,457.2 715.139,427.604     "
             id="polyline107"
             style="fill:#fef3df" /><g
             id="g109"><path
               d="m 705.288,438.868 c 0,0 -17.599,-18.89 -38.165,-13.309 0,0 4.277,25.767 36.096,32.372 l 2.164,6.413 c 0,0 -49.958,-5.925 -46.456,-49.964 0,0 36.728,-16.138 55.372,9.881"
               id="path111"
               inkscape:connector-curvature="0"
               style="fill:#b58765" /><polyline
               points="855.735,417.576 844.957,445.404 829.753,453.295 806.023,425.008      "
               id="polyline113"
               style="fill:#fef3df" /><path
               d="m 816.503,435.691 c 0,0 16.491,-19.864 37.34,-15.466 0,0 -2.797,25.969 -34.187,34.38 l -1.796,6.527 c 0,0 49.537,-8.768 43.528,-52.535 0,0 -37.588,-14.015 -54.719,13.026"
               id="path115"
               inkscape:connector-curvature="0"
               style="fill:#b58765" /></g></g><path
           d="m 721.173,570.346 42.418,-1.212 15.59845,-160.5887 c -42.319,1.209 -92.18245,30.1357 -91.14645,66.4047 0.031,1.102 0.125,2.111 0.182,3.163 0.181,2.98 0.504,5.741 0.89,8.424 1.602,11.197 4.722,20.488 7.355,32.71 1.27,5.906 4.299,17.614 4.299,17.614 0.052,0.308 0.143,0.606 0.196,0.913 2.281,12.491 9.666,24.028 20.208,32.572 z"
           id="path117"
           inkscape:connector-curvature="0"
           style="fill:#b58765"
           sodipodi:nodetypes="cccccccccc" /><path
           d="m 758.532,407.21 4.626,161.937 42.418,-1.212 c 10.038,-9.132 16.75,-21.072 18.317,-33.672 0.035,-0.31 0.107,-0.613 0.141,-0.923 0,0 2.354,-11.862 3.287,-17.831 1.932,-12.352 4.518,-21.807 5.478,-33.075 0.23,-2.702 0.393,-5.477 0.4,-8.463 0.002,-1.053 0.036,-2.066 0.005,-3.168 -1.037,-36.269 -32.35,-64.802 -74.672,-63.593 z"
           id="path119"
           inkscape:connector-curvature="0"
           style="fill:#b58765" /><g
           id="g121"><g
             id="g123"><path
               d="m 822.293,541.988 c 0.613,21.473 -25.496,39.648 -58.32,40.586 -32.83,0.938 -59.932,-15.717 -60.546,-37.19 -0.614,-21.477 25.494,-39.648 58.324,-40.586 32.825,-0.938 59.929,15.713 60.542,37.19 z"
               id="path125"
               inkscape:connector-curvature="0"
               style="fill:#fef3df" /></g></g><g
           id="g127"><g
             id="g129"><g
               id="g131"><path
                 d="m 735.761,538.45 c 0.135,4.712 -3.578,8.644 -8.294,8.778 -4.708,0.134 -8.641,-3.579 -8.776,-8.291 -0.135,-4.718 3.58,-8.644 8.288,-8.779 4.717,-0.134 8.647,3.573 8.782,8.292 z"
                 id="path133"
                 inkscape:connector-curvature="0"
                 style="fill:#5a3620" /></g></g><g
             id="g135"><g
               id="g137"><path
                 d="m 806.891,536.418 c 0.135,4.712 -3.575,8.644 -8.291,8.778 -4.714,0.135 -8.646,-3.579 -8.781,-8.291 -0.135,-4.718 3.579,-8.644 8.293,-8.779 4.716,-0.134 8.644,3.573 8.779,8.292 z"
                 id="path139"
                 inkscape:connector-curvature="0"
                 style="fill:#5a3620" /></g></g></g><g
           id="g141"><path
             d="m 831.225,475.208 c 0.201,-2.368 0.344,-4.799 0.352,-7.411 0,-0.924 0.031,-1.81 0.003,-2.778 -0.883,-30.924 -26.904,-55.418 -62.478,-55.716 l -5.561,0.163 -0.005,0 c -0.005,0.014 -19.18666,70.69971 61.71134,107.73071 0.624,-3.294 9.87079,-9.74237 10.28979,-12.41137 1.694,-10.822 -5.15313,-19.70834 -4.31213,-29.57734 z"
             id="path143"
             inkscape:connector-curvature="0"
             style="fill:#87654a"
             sodipodi:nodetypes="ccccccccc" /></g><g
           id="g145"><g
             id="g147"><g
               id="g149"><g
                 id="g151"><path
                   d="m 807.344,471.221 c 0.151,5.28 -4.011,9.684 -9.294,9.835 -5.279,0.151 -9.686,-4.008 -9.837,-9.288 -0.151,-5.285 4.011,-9.687 9.291,-9.838 5.282,-0.151 9.689,4.006 9.84,9.291 z"
                   id="path153"
                   inkscape:connector-curvature="0"
                   style="fill:#5a3620" /></g></g></g><g
             id="g155"><g
               id="g157"><g
                 id="g159"><path
                   d="m 737.68,473.211 c 0.151,5.28 -4.01,9.684 -9.289,9.835 -5.284,0.151 -9.685,-4.008 -9.835,-9.288 -0.151,-5.285 4.005,-9.687 9.289,-9.837 5.279,-0.152 9.684,4.005 9.835,9.29 z"
                   id="path161"
                   inkscape:connector-curvature="0"
                   style="fill:#5a3620" /></g></g></g><g
             id="g163"><g
               id="g165"><path
                 d="m 735.112,470.41 c 0.055,1.939 -1.47,3.555 -3.41,3.61 -1.939,0.055 -3.558,-1.47 -3.613,-3.41 -0.055,-1.935 1.474,-3.552 3.413,-3.607 1.94,-0.055 3.555,1.472 3.61,3.407 z"
                 id="path167"
                 inkscape:connector-curvature="0"
                 style="fill:#ffffff" /></g></g><g
             id="g169"><g
               id="g171"><path
                 d="m 804.125,468.439 c 0.055,1.939 -1.472,3.555 -3.409,3.61 -1.94,0.055 -3.556,-1.47 -3.611,-3.41 -0.055,-1.935 1.471,-3.552 3.411,-3.607 1.937,-0.056 3.554,1.471 3.609,3.407 z"
                 id="path173"
                 inkscape:connector-curvature="0"
                 style="fill:#ffffff" /></g></g></g></g><path
         d="m 761.738,405.962 c -50.342,1.438 -89.989,43.417 -88.55,93.759 1.438,50.342 43.417,89.987 93.758,88.549 50.343,-1.438 89.988,-43.415 88.55,-93.757 -1.438,-50.343 -43.415,-89.989 -93.758,-88.551 z m -4.396,163.807 c -40.192,1.148 -73.725,-31.172 -74.896,-72.19 -1.172,-41.017 30.461,-75.2 70.653,-76.348 40.191,-1.148 73.723,31.172 74.895,72.19 1.171,41.018 -30.462,75.2 -70.652,76.348 z"
         id="path179"
         inkscape:connector-curvature="0"
         style="fill:#f1f2f2" /><g
         id="g181" /></g></g></svg>